# xmcd
# 
# Track frame offsets:
#     150
#     24535
#     53792
#     71512
#     94215
#     113325
#     142902
#     168817
# 
# Disc length: 2392
# 
# Revision: 1
# Processed by: cddbd v1.5.2PL0 Copyright (c) Steve Scherf et al.
# Submitted via: BonkEnc v1.0.8
# 
DISCID=5c095608
DTITLE=Hank Jones - 'Bop Redux
DYEAR=1977
DGENRE=Jazz
TTITLE0=Yardbird Suite
TTITLE1=Confirmation
TTITLE2=Ruby, My Dear
TTITLE3=Relaxin' With Lee
TTITLE4=Bloomdido
TTITLE5='round Midnight
TTITLE6=Moose The Mooche
TTITLE7=Monk's Mood
EXTD=YEAR: 1977
EXTT0=
EXTT1=
EXTT2=
EXTT3=
EXTT4=
EXTT5=
EXTT6=
EXTT7=
PLAYORDER=
